<mxfile host="app.diagrams.net" modified="2020-05-10T14:30:55.253Z" agent="5.0 (Windows NT 10.0; Win64; x64) AppleWebKit/537.36 (KHTML, like Gecko) Chrome/81.0.4044.138 Safari/537.36" etag="IorwsUC9tn3Brn9by4XS" version="13.0.9" type="github">
  <diagram id="jUj3XkuyWMiYx8Db-KqB" name="Page-1">
    <mxGraphModel dx="2553" dy="4028" grid="1" gridSize="10" guides="1" tooltips="1" connect="1" arrows="1" fold="1" page="1" pageScale="1" pageWidth="850" pageHeight="1100" math="0" shadow="0">
      <root>
        <mxCell id="0" />
        <mxCell id="1" parent="0" />
        <mxCell id="C1xKzkM91UP0bxz_QSj5-5" value="&lt;p style=&quot;margin: 4px 0px 0px ; text-align: center&quot;&gt;&lt;i&gt;&amp;lt;&amp;lt;Interface&amp;gt;&amp;gt;&lt;/i&gt;&lt;br&gt;&lt;b&gt;ProgressiveCreature&lt;/b&gt;&lt;/p&gt;&lt;hr size=&quot;1&quot;&gt;&lt;p style=&quot;margin: 0px 0px 0px 4px&quot;&gt;+ addExpPoints(exp: int): void&lt;br&gt;+ getLevel(): int&lt;/p&gt;&lt;p style=&quot;margin: 0px 0px 0px 4px&quot;&gt;+ onLevelUp(level: int): void&lt;/p&gt;&lt;p style=&quot;margin: 0px 0px 0px 4px&quot;&gt;+ displayProgress(): void&lt;br&gt;&lt;/p&gt;" style="verticalAlign=top;align=left;overflow=fill;fontSize=12;fontFamily=Helvetica;html=1;" parent="1" vertex="1">
          <mxGeometry x="650" y="-1690" width="190" height="110" as="geometry" />
        </mxCell>
        <mxCell id="C1xKzkM91UP0bxz_QSj5-6" value="&lt;p style=&quot;margin: 0px ; margin-top: 4px ; text-align: center&quot;&gt;&lt;b&gt;&lt;i&gt;Entity&lt;/i&gt;&lt;/b&gt;&lt;/p&gt;&lt;hr size=&quot;1&quot;&gt;&lt;p style=&quot;margin: 0px ; margin-left: 4px&quot;&gt;# position: Position&lt;br&gt;&lt;/p&gt;&lt;hr size=&quot;1&quot;&gt;&lt;p style=&quot;margin: 0px ; margin-left: 4px&quot;&gt;+ Entity(position: Position)&lt;/p&gt;&lt;p style=&quot;margin: 0px ; margin-left: 4px&quot;&gt;&lt;i&gt;+ getInfo(): String&lt;/i&gt;&lt;/p&gt;" style="verticalAlign=top;align=left;overflow=fill;fontSize=12;fontFamily=Helvetica;html=1;" parent="1" vertex="1">
          <mxGeometry x="-90" y="-2220" width="155" height="90" as="geometry" />
        </mxCell>
        <mxCell id="C1xKzkM91UP0bxz_QSj5-7" value="&lt;p style=&quot;margin: 4px 0px 0px ; text-align: center&quot;&gt;&lt;i&gt;&amp;lt;&amp;lt;Abstract&amp;gt;&amp;gt;&lt;/i&gt;&lt;/p&gt;&lt;p style=&quot;margin: 4px 0px 0px ; text-align: center&quot;&gt;&lt;b&gt;&lt;i&gt;Creature&lt;/i&gt;&lt;/b&gt;&lt;/p&gt;&lt;hr size=&quot;1&quot;&gt;&lt;p style=&quot;margin: 0px 0px 0px 4px&quot;&gt;# healthPoints: int&lt;br&gt;# attackPoints: int&lt;br&gt;&lt;/p&gt;&lt;p style=&quot;margin: 0px 0px 0px 4px&quot;&gt;# expPoints: int&lt;br&gt;&lt;/p&gt;&lt;p style=&quot;margin: 0px 0px 0px 4px&quot;&gt;# name: String&lt;br&gt;&lt;/p&gt;&lt;hr size=&quot;1&quot;&gt;&lt;p style=&quot;margin: 0px 0px 0px 4px&quot;&gt;+ Creature(name: String, position: Position,&lt;/p&gt;&lt;p style=&quot;margin: 0px 0px 0px 4px&quot;&gt;healthPoints: int, attackPoints: int, expPoints: int)&lt;/p&gt;&lt;p style=&quot;margin: 0px 0px 0px 4px&quot;&gt;+ addHealthPoints(healthPoints: int): void&lt;/p&gt;&lt;p style=&quot;margin: 0px 0px 0px 4px&quot;&gt;+ isAlive(): boolean&lt;/p&gt;&lt;p style=&quot;margin: 0px 0px 0px 4px&quot;&gt;&lt;br&gt;&lt;/p&gt;&lt;p style=&quot;margin: 0px 0px 0px 4px&quot;&gt;&lt;i&gt;--Abstract Methods--&lt;/i&gt;&lt;/p&gt;&lt;p style=&quot;margin: 0px 0px 0px 4px&quot;&gt;&lt;i&gt;&lt;br&gt;&lt;/i&gt;&lt;/p&gt;&lt;p style=&quot;margin: 0px 0px 0px 4px&quot;&gt;&lt;i&gt;+ onDeathAction(): void&lt;/i&gt;&lt;/p&gt;&lt;p style=&quot;margin: 0px 0px 0px 4px&quot;&gt;&lt;i&gt;+ counterAttack(attacker: Creature): void&lt;/i&gt;&lt;/p&gt;" style="verticalAlign=top;align=left;overflow=fill;fontSize=12;fontFamily=Helvetica;html=1;" parent="1" vertex="1">
          <mxGeometry x="40" y="-2010" width="270" height="250" as="geometry" />
        </mxCell>
        <mxCell id="C1xKzkM91UP0bxz_QSj5-10" value="&lt;p style=&quot;margin: 0px ; margin-top: 4px ; text-align: center&quot;&gt;&lt;b&gt;Player&lt;/b&gt;&lt;/p&gt;&lt;hr size=&quot;1&quot;&gt;&lt;p style=&quot;margin: 0px ; margin-left: 4px&quot;&gt;...&lt;/p&gt;&lt;hr size=&quot;1&quot;&gt;&lt;p style=&quot;margin: 0px 0px 0px 4px&quot;&gt;+ Player(name: String, position: Position,&lt;/p&gt;&lt;p style=&quot;margin: 0px 0px 0px 4px&quot;&gt;healthPoints: int, attackPoints: int,&lt;/p&gt;&lt;p style=&quot;margin: 0px 0px 0px 4px&quot;&gt;expPoints: int)&lt;/p&gt;&lt;p style=&quot;margin: 0px ; margin-left: 4px&quot;&gt;+ attack(victim: Creature): void&lt;/p&gt;" style="verticalAlign=top;align=left;overflow=fill;fontSize=12;fontFamily=Helvetica;html=1;" parent="1" vertex="1">
          <mxGeometry x="280" y="-1600" width="220" height="120" as="geometry" />
        </mxCell>
        <mxCell id="C1xKzkM91UP0bxz_QSj5-12" value="&lt;p style=&quot;margin: 0px ; margin-top: 4px ; text-align: center&quot;&gt;&lt;b&gt;NPC&lt;/b&gt;&lt;/p&gt;&lt;hr size=&quot;1&quot;&gt;&lt;p style=&quot;margin: 0px ; margin-left: 4px&quot;&gt;...&lt;/p&gt;&lt;hr size=&quot;1&quot;&gt;&lt;p style=&quot;margin: 0px ; margin-left: 4px&quot;&gt;+ NPC(name: String, position: Position,&lt;/p&gt;&lt;p style=&quot;margin: 0px ; margin-left: 4px&quot;&gt;healthPoints: int, attackPoints: int,&lt;/p&gt;&lt;p style=&quot;margin: 0px ; margin-left: 4px&quot;&gt;expPoints: int)&lt;/p&gt;" style="verticalAlign=top;align=left;overflow=fill;fontSize=12;fontFamily=Helvetica;html=1;" parent="1" vertex="1">
          <mxGeometry x="-130" y="-1610" width="220" height="100" as="geometry" />
        </mxCell>
        <mxCell id="C1xKzkM91UP0bxz_QSj5-14" value="&lt;p style=&quot;margin: 0px ; margin-top: 4px ; text-align: center&quot;&gt;&lt;b&gt;Rabbit&lt;/b&gt;&lt;/p&gt;&lt;hr size=&quot;1&quot;&gt;&lt;p style=&quot;margin: 0px ; margin-left: 4px&quot;&gt;...&lt;/p&gt;&lt;hr size=&quot;1&quot;&gt;&lt;p style=&quot;margin: 0px ; margin-left: 4px&quot;&gt;+ Rabbit(position: Position)&lt;/p&gt;" style="verticalAlign=top;align=left;overflow=fill;fontSize=12;fontFamily=Helvetica;html=1;" parent="1" vertex="1">
          <mxGeometry x="-230" y="-1420" width="160" height="80" as="geometry" />
        </mxCell>
        <mxCell id="C1xKzkM91UP0bxz_QSj5-15" value="&lt;p style=&quot;margin: 0px ; margin-top: 4px ; text-align: center&quot;&gt;&lt;b&gt;Wolf&lt;/b&gt;&lt;/p&gt;&lt;hr size=&quot;1&quot;&gt;&lt;p style=&quot;margin: 0px ; margin-left: 4px&quot;&gt;...&lt;/p&gt;&lt;hr size=&quot;1&quot;&gt;&lt;p style=&quot;margin: 0px ; margin-left: 4px&quot;&gt;+ Wolf(position: Position)&lt;br&gt;&lt;/p&gt;" style="verticalAlign=top;align=left;overflow=fill;fontSize=12;fontFamily=Helvetica;html=1;" parent="1" vertex="1">
          <mxGeometry x="10" y="-1420" width="170" height="80" as="geometry" />
        </mxCell>
        <mxCell id="C1xKzkM91UP0bxz_QSj5-21" value="&lt;font style=&quot;font-size: 12px&quot;&gt;Extends&lt;/font&gt;" style="endArrow=block;endSize=16;endFill=0;html=1;fontSize=32;entryX=0.5;entryY=1;entryDx=0;entryDy=0;exitX=0.5;exitY=0;exitDx=0;exitDy=0;" parent="1" source="C1xKzkM91UP0bxz_QSj5-10" target="C1xKzkM91UP0bxz_QSj5-7" edge="1">
          <mxGeometry width="160" relative="1" as="geometry">
            <mxPoint x="10" y="-1680" as="sourcePoint" />
            <mxPoint x="170" y="-1680" as="targetPoint" />
          </mxGeometry>
        </mxCell>
        <mxCell id="C1xKzkM91UP0bxz_QSj5-22" value="&lt;font style=&quot;font-size: 12px&quot;&gt;Extends&lt;/font&gt;" style="endArrow=block;endSize=16;endFill=0;html=1;fontSize=32;entryX=0.5;entryY=1;entryDx=0;entryDy=0;exitX=0.5;exitY=0;exitDx=0;exitDy=0;" parent="1" source="C1xKzkM91UP0bxz_QSj5-7" target="C1xKzkM91UP0bxz_QSj5-6" edge="1">
          <mxGeometry width="160" relative="1" as="geometry">
            <mxPoint x="-170" y="-1970" as="sourcePoint" />
            <mxPoint x="-10" y="-1970" as="targetPoint" />
          </mxGeometry>
        </mxCell>
        <mxCell id="C1xKzkM91UP0bxz_QSj5-23" value="" style="endArrow=block;dashed=1;endFill=0;endSize=12;html=1;fontSize=32;entryX=0;entryY=0.5;entryDx=0;entryDy=0;exitX=1;exitY=0;exitDx=0;exitDy=0;" parent="1" source="C1xKzkM91UP0bxz_QSj5-10" target="C1xKzkM91UP0bxz_QSj5-5" edge="1">
          <mxGeometry width="160" relative="1" as="geometry">
            <mxPoint x="420" y="-1580" as="sourcePoint" />
            <mxPoint x="580" y="-1580" as="targetPoint" />
          </mxGeometry>
        </mxCell>
        <mxCell id="NymoBWF-nTONLzIgejjN-8" value="&lt;font style=&quot;font-size: 12px&quot;&gt;Implements&lt;/font&gt;" style="edgeLabel;html=1;align=center;verticalAlign=middle;resizable=0;points=[];" parent="C1xKzkM91UP0bxz_QSj5-23" vertex="1" connectable="0">
          <mxGeometry x="0.1137" relative="1" as="geometry">
            <mxPoint as="offset" />
          </mxGeometry>
        </mxCell>
        <mxCell id="C1xKzkM91UP0bxz_QSj5-24" value="&lt;font style=&quot;font-size: 12px&quot;&gt;Extends&lt;/font&gt;" style="endArrow=block;endSize=16;endFill=0;html=1;fontSize=32;entryX=0.5;entryY=1;entryDx=0;entryDy=0;exitX=0.5;exitY=0;exitDx=0;exitDy=0;" parent="1" source="C1xKzkM91UP0bxz_QSj5-12" target="C1xKzkM91UP0bxz_QSj5-7" edge="1">
          <mxGeometry width="160" relative="1" as="geometry">
            <mxPoint x="295" y="-1630" as="sourcePoint" />
            <mxPoint x="170" y="-1740" as="targetPoint" />
          </mxGeometry>
        </mxCell>
        <mxCell id="C1xKzkM91UP0bxz_QSj5-25" value="&lt;font style=&quot;font-size: 12px&quot;&gt;Extends&lt;/font&gt;" style="endArrow=block;endSize=16;endFill=0;html=1;fontSize=32;entryX=0.5;entryY=1;entryDx=0;entryDy=0;exitX=0.5;exitY=0;exitDx=0;exitDy=0;" parent="1" source="C1xKzkM91UP0bxz_QSj5-14" target="C1xKzkM91UP0bxz_QSj5-12" edge="1">
          <mxGeometry width="160" relative="1" as="geometry">
            <mxPoint x="-20" y="-1450" as="sourcePoint" />
            <mxPoint x="185" y="-1590" as="targetPoint" />
          </mxGeometry>
        </mxCell>
        <mxCell id="C1xKzkM91UP0bxz_QSj5-26" value="&lt;font style=&quot;font-size: 12px&quot;&gt;Extends&lt;/font&gt;" style="endArrow=block;endSize=16;endFill=0;html=1;fontSize=32;exitX=0.5;exitY=0;exitDx=0;exitDy=0;entryX=0.5;entryY=1;entryDx=0;entryDy=0;" parent="1" source="C1xKzkM91UP0bxz_QSj5-15" target="C1xKzkM91UP0bxz_QSj5-12" edge="1">
          <mxGeometry width="160" relative="1" as="geometry">
            <mxPoint x="-240" y="-1530" as="sourcePoint" />
            <mxPoint x="20" y="-1490" as="targetPoint" />
          </mxGeometry>
        </mxCell>
        <mxCell id="C1xKzkM91UP0bxz_QSj5-27" value="&lt;p style=&quot;margin: 0px ; margin-top: 4px ; text-align: center&quot;&gt;&lt;b&gt;Game&lt;/b&gt;&lt;/p&gt;&lt;hr size=&quot;1&quot;&gt;&lt;p style=&quot;margin: 0px ; margin-left: 4px&quot;&gt;...&lt;/p&gt;&lt;hr size=&quot;1&quot;&gt;&lt;p style=&quot;margin: 0px ; margin-left: 4px&quot;&gt;- &lt;u&gt;generateRandomCreature(): Creature&lt;/u&gt;&lt;/p&gt;&lt;p style=&quot;margin: 0px ; margin-left: 4px&quot;&gt;+ &lt;u&gt;run(): void&lt;/u&gt;&lt;/p&gt;" style="verticalAlign=top;align=left;overflow=fill;fontSize=12;fontFamily=Helvetica;html=1;" parent="1" vertex="1">
          <mxGeometry x="-260" y="-1945" width="220" height="180" as="geometry" />
        </mxCell>
        <mxCell id="C1xKzkM91UP0bxz_QSj5-32" value="&lt;p style=&quot;margin: 0px ; margin-top: 4px ; text-align: center&quot;&gt;&lt;/p&gt;&lt;p style=&quot;margin: 0px ; margin-left: 4px&quot;&gt;Notes:&lt;/p&gt;&lt;p style=&quot;margin: 0px ; margin-left: 4px&quot;&gt;1) Show what class uses which objects&lt;/p&gt;&lt;p style=&quot;margin: 0px ; margin-left: 4px&quot;&gt;inside them&lt;/p&gt;&lt;hr size=&quot;1&quot;&gt;&lt;p style=&quot;margin: 0px ; margin-left: 4px&quot;&gt;+&amp;nbsp;&lt;/p&gt;" style="verticalAlign=top;align=left;overflow=fill;fontSize=12;fontFamily=Helvetica;html=1;" parent="1" vertex="1">
          <mxGeometry x="340" y="-1290" width="230" height="90" as="geometry" />
        </mxCell>
        <mxCell id="NymoBWF-nTONLzIgejjN-2" value="&lt;p style=&quot;margin: 0px ; margin-top: 4px ; text-align: center&quot;&gt;&lt;b&gt;World&lt;/b&gt;&lt;/p&gt;&lt;hr size=&quot;1&quot;&gt;&lt;p style=&quot;margin: 0px ; margin-left: 4px&quot;&gt;- blockCountX: int&lt;/p&gt;&lt;p style=&quot;margin: 0px ; margin-left: 4px&quot;&gt;- blockCountY: int&lt;/p&gt;&lt;p style=&quot;margin: 0px ; margin-left: 4px&quot;&gt;- blocks: ArrayList&amp;lt;ArrayList&amp;lt;Block&amp;gt;&amp;gt;&lt;/p&gt;&lt;p style=&quot;margin: 0px ; margin-left: 4px&quot;&gt;- entities: ArrayList&amp;lt;Entity&amp;gt;&lt;/p&gt;&lt;hr size=&quot;1&quot;&gt;&lt;p style=&quot;margin: 0px ; margin-left: 4px&quot;&gt;+ World (blockCountX: int, blockCountY: int)&lt;/p&gt;&lt;p style=&quot;margin: 0px ; margin-left: 4px&quot;&gt;+ resize(newBlockCountX: int,&lt;/p&gt;&lt;p style=&quot;margin: 0px ; margin-left: 4px&quot;&gt;int newBlockCountY: int): void&lt;/p&gt;&lt;p style=&quot;margin: 0px ; margin-left: 4px&quot;&gt;+ addBlock(position: Position,&amp;nbsp;&lt;/p&gt;&lt;p style=&quot;margin: 0px ; margin-left: 4px&quot;&gt;&lt;span&gt;block: Block): void&lt;/span&gt;&lt;/p&gt;&lt;p style=&quot;margin: 0px ; margin-left: 4px&quot;&gt;&lt;span&gt;+ getBlock(position: Position): Block&lt;/span&gt;&lt;/p&gt;&lt;p style=&quot;margin: 0px ; margin-left: 4px&quot;&gt;&lt;span&gt;+ updateBlock(position: Position,&lt;/span&gt;&lt;/p&gt;&lt;p style=&quot;margin: 0px ; margin-left: 4px&quot;&gt;&lt;span&gt;block: Block, onlyTop: boolean): void&lt;/span&gt;&lt;/p&gt;&lt;p style=&quot;margin: 0px ; margin-left: 4px&quot;&gt;&lt;span&gt;+ removeBlock(position: Position,&lt;/span&gt;&lt;/p&gt;&lt;p style=&quot;margin: 0px ; margin-left: 4px&quot;&gt;onlyTop: boolean): void&lt;/p&gt;&lt;p style=&quot;margin: 0px ; margin-left: 4px&quot;&gt;+ addEntity(entity: Entity): void&lt;/p&gt;&lt;p style=&quot;margin: 0px ; margin-left: 4px&quot;&gt;+ removeEntity(entity: Entity): void&lt;/p&gt;" style="verticalAlign=top;align=left;overflow=fill;fontSize=12;fontFamily=Helvetica;html=1;" parent="1" vertex="1">
          <mxGeometry x="-580" y="-2480" width="265" height="290" as="geometry" />
        </mxCell>
        <mxCell id="NymoBWF-nTONLzIgejjN-3" value="&lt;p style=&quot;margin: 0px ; margin-top: 4px ; text-align: center&quot;&gt;&lt;b&gt;Block&lt;/b&gt;&lt;/p&gt;&lt;hr size=&quot;1&quot;&gt;&lt;p style=&quot;margin: 0px ; margin-left: 4px&quot;&gt;- texture: int&lt;/p&gt;&lt;hr size=&quot;1&quot;&gt;&lt;p style=&quot;margin: 0px ; margin-left: 4px&quot;&gt;+ Block(texture: int)&lt;/p&gt;" style="verticalAlign=top;align=left;overflow=fill;fontSize=12;fontFamily=Helvetica;html=1;" parent="1" vertex="1">
          <mxGeometry x="-830" y="-2440" width="120" height="80" as="geometry" />
        </mxCell>
        <mxCell id="32kt1ptJz1jKtRJD1w_c-1" value="&lt;p style=&quot;margin: 0px ; margin-top: 4px ; text-align: center&quot;&gt;&lt;b&gt;Position&lt;/b&gt;&lt;/p&gt;&lt;hr size=&quot;1&quot;&gt;&lt;p style=&quot;margin: 0px ; margin-left: 4px&quot;&gt;- x: int&lt;/p&gt;&lt;p style=&quot;margin: 0px ; margin-left: 4px&quot;&gt;- y: int&lt;/p&gt;&lt;hr size=&quot;1&quot;&gt;&lt;p style=&quot;margin: 0px ; margin-left: 4px&quot;&gt;+ Position(x: int, y: int,&amp;nbsp;&lt;/p&gt;&lt;p style=&quot;margin: 0px ; margin-left: 4px&quot;&gt;isBlockPosition&lt;span&gt;:&amp;nbsp;&lt;/span&gt;&lt;span&gt;boolean)&lt;/span&gt;&lt;/p&gt;&lt;p style=&quot;margin: 0px ; margin-left: 4px&quot;&gt;+ getBlockX(): int&lt;/p&gt;&lt;p style=&quot;margin: 0px ; margin-left: 4px&quot;&gt;+ getBlockY(): int&lt;/p&gt;" style="verticalAlign=top;align=left;overflow=fill;fontSize=12;fontFamily=Helvetica;html=1;" vertex="1" parent="1">
          <mxGeometry x="130" y="-2570" width="145" height="130" as="geometry" />
        </mxCell>
        <mxCell id="32kt1ptJz1jKtRJD1w_c-4" style="edgeStyle=orthogonalEdgeStyle;rounded=0;orthogonalLoop=1;jettySize=auto;html=1;exitX=0.5;exitY=1;exitDx=0;exitDy=0;" edge="1" parent="1" source="32kt1ptJz1jKtRJD1w_c-1" target="32kt1ptJz1jKtRJD1w_c-1">
          <mxGeometry relative="1" as="geometry" />
        </mxCell>
        <mxCell id="32kt1ptJz1jKtRJD1w_c-8" value="" style="endArrow=diamondThin;endFill=0;endSize=24;html=1;entryX=1;entryY=0.5;entryDx=0;entryDy=0;exitX=0;exitY=0.5;exitDx=0;exitDy=0;" edge="1" parent="1" source="C1xKzkM91UP0bxz_QSj5-7" target="C1xKzkM91UP0bxz_QSj5-27">
          <mxGeometry width="160" relative="1" as="geometry">
            <mxPoint x="-190" y="-1840" as="sourcePoint" />
            <mxPoint x="-30" y="-1840" as="targetPoint" />
          </mxGeometry>
        </mxCell>
        <mxCell id="32kt1ptJz1jKtRJD1w_c-9" value="1..*" style="edgeLabel;html=1;align=center;verticalAlign=middle;resizable=0;points=[];" vertex="1" connectable="0" parent="32kt1ptJz1jKtRJD1w_c-8">
          <mxGeometry x="-0.7958" y="1" relative="1" as="geometry">
            <mxPoint x="-7.6" y="-8.43" as="offset" />
          </mxGeometry>
        </mxCell>
        <mxCell id="32kt1ptJz1jKtRJD1w_c-12" value="" style="endArrow=diamondThin;endFill=1;endSize=24;html=1;entryX=0.5;entryY=0;entryDx=0;entryDy=0;exitX=0.25;exitY=1;exitDx=0;exitDy=0;" edge="1" parent="1" source="32kt1ptJz1jKtRJD1w_c-1" target="C1xKzkM91UP0bxz_QSj5-6">
          <mxGeometry width="160" relative="1" as="geometry">
            <mxPoint x="180" y="-2210" as="sourcePoint" />
            <mxPoint x="340" y="-2210" as="targetPoint" />
          </mxGeometry>
        </mxCell>
        <mxCell id="32kt1ptJz1jKtRJD1w_c-13" value="1" style="edgeLabel;html=1;align=center;verticalAlign=middle;resizable=0;points=[];" vertex="1" connectable="0" parent="32kt1ptJz1jKtRJD1w_c-12">
          <mxGeometry x="-0.7982" y="-1" relative="1" as="geometry">
            <mxPoint x="-19.2" as="offset" />
          </mxGeometry>
        </mxCell>
        <mxCell id="32kt1ptJz1jKtRJD1w_c-14" value="Use" style="endArrow=open;endSize=12;dashed=1;html=1;exitX=0.75;exitY=0;exitDx=0;exitDy=0;entryX=0.75;entryY=1;entryDx=0;entryDy=0;" edge="1" parent="1" source="C1xKzkM91UP0bxz_QSj5-7" target="32kt1ptJz1jKtRJD1w_c-1">
          <mxGeometry width="160" relative="1" as="geometry">
            <mxPoint x="-90" y="-2120" as="sourcePoint" />
            <mxPoint x="70" y="-2120" as="targetPoint" />
          </mxGeometry>
        </mxCell>
        <mxCell id="32kt1ptJz1jKtRJD1w_c-15" value="Use" style="endArrow=open;endSize=12;dashed=1;html=1;exitX=1;exitY=0.75;exitDx=0;exitDy=0;entryX=1;entryY=0.84;entryDx=0;entryDy=0;entryPerimeter=0;" edge="1" parent="1" source="C1xKzkM91UP0bxz_QSj5-7" target="C1xKzkM91UP0bxz_QSj5-7">
          <mxGeometry width="160" relative="1" as="geometry">
            <mxPoint x="463.75" y="-1800" as="sourcePoint" />
            <mxPoint x="370" y="-1780" as="targetPoint" />
            <Array as="points">
              <mxPoint x="340" y="-1822" />
              <mxPoint x="340" y="-1800" />
            </Array>
          </mxGeometry>
        </mxCell>
        <mxCell id="32kt1ptJz1jKtRJD1w_c-17" value="Use" style="endArrow=open;endSize=12;dashed=1;html=1;exitX=0.5;exitY=0;exitDx=0;exitDy=0;entryX=1;entryY=1;entryDx=0;entryDy=0;" edge="1" parent="1" source="C1xKzkM91UP0bxz_QSj5-10" target="C1xKzkM91UP0bxz_QSj5-7">
          <mxGeometry width="160" relative="1" as="geometry">
            <mxPoint x="500" y="-1480" as="sourcePoint" />
            <mxPoint x="451.25" y="-1770" as="targetPoint" />
          </mxGeometry>
        </mxCell>
        <mxCell id="32kt1ptJz1jKtRJD1w_c-19" value="Use" style="endArrow=open;endSize=12;dashed=1;html=1;entryX=0;entryY=0.25;entryDx=0;entryDy=0;exitX=1;exitY=0;exitDx=0;exitDy=0;" edge="1" parent="1" source="NymoBWF-nTONLzIgejjN-2" target="32kt1ptJz1jKtRJD1w_c-1">
          <mxGeometry width="160" relative="1" as="geometry">
            <mxPoint x="-120" y="-2300" as="sourcePoint" />
            <mxPoint x="-119.99999999999977" y="-2420" as="targetPoint" />
          </mxGeometry>
        </mxCell>
        <mxCell id="32kt1ptJz1jKtRJD1w_c-24" value="" style="endArrow=diamondThin;endFill=0;endSize=24;html=1;entryX=0.999;entryY=0.898;entryDx=0;entryDy=0;exitX=0;exitY=0.25;exitDx=0;exitDy=0;entryPerimeter=0;" edge="1" parent="1" source="C1xKzkM91UP0bxz_QSj5-6" target="NymoBWF-nTONLzIgejjN-2">
          <mxGeometry width="160" relative="1" as="geometry">
            <mxPoint x="-180" y="-2260" as="sourcePoint" />
            <mxPoint x="-260" y="-2230" as="targetPoint" />
          </mxGeometry>
        </mxCell>
        <mxCell id="32kt1ptJz1jKtRJD1w_c-25" value="1..*" style="edgeLabel;html=1;align=center;verticalAlign=middle;resizable=0;points=[];" vertex="1" connectable="0" parent="32kt1ptJz1jKtRJD1w_c-24">
          <mxGeometry x="-0.7958" y="1" relative="1" as="geometry">
            <mxPoint x="-7.6" y="-8.43" as="offset" />
          </mxGeometry>
        </mxCell>
        <mxCell id="32kt1ptJz1jKtRJD1w_c-26" value="" style="endArrow=diamondThin;endFill=1;endSize=24;html=1;exitX=1;exitY=0.5;exitDx=0;exitDy=0;entryX=0;entryY=0.25;entryDx=0;entryDy=0;" edge="1" parent="1" source="NymoBWF-nTONLzIgejjN-3" target="NymoBWF-nTONLzIgejjN-2">
          <mxGeometry width="160" relative="1" as="geometry">
            <mxPoint x="176.25" y="-2430" as="sourcePoint" />
            <mxPoint x="-690" y="-2200" as="targetPoint" />
          </mxGeometry>
        </mxCell>
        <mxCell id="32kt1ptJz1jKtRJD1w_c-27" value="1..*" style="edgeLabel;html=1;align=center;verticalAlign=middle;resizable=0;points=[];" vertex="1" connectable="0" parent="32kt1ptJz1jKtRJD1w_c-26">
          <mxGeometry x="-0.7982" y="-1" relative="1" as="geometry">
            <mxPoint x="7.02" y="-10.25" as="offset" />
          </mxGeometry>
        </mxCell>
      </root>
    </mxGraphModel>
  </diagram>
</mxfile>
